<svg width="15" height="15" viewBox="0 0 15 15" fill="none" xmlns="http://www.w3.org/2000/svg">
<g clip-path="url(#clip0_23_420)">
<path d="M10.9373 1.19824C10.2335 1.20919 9.54508 1.40565 8.94152 1.76779C8.33796 2.12992 7.84064 2.64491 7.49979 3.26074C7.15894 2.64491 6.66162 2.12992 6.05806 1.76779C5.4545 1.40565 4.76607 1.20919 4.06229 1.19824C2.94038 1.24699 1.88336 1.73778 1.12215 2.56339C0.360953 3.389 -0.0425533 4.48232 -0.000209174 5.60449C-0.000209174 8.44637 2.99104 11.5501 5.49979 13.6545C6.05993 14.1252 6.76814 14.3833 7.49979 14.3833C8.23144 14.3833 8.93965 14.1252 9.49979 13.6545C12.0085 11.5501 14.9998 8.44637 14.9998 5.60449C15.0421 4.48232 14.6386 3.389 13.8774 2.56339C13.1162 1.73778 12.0592 1.24699 10.9373 1.19824ZM8.69666 12.6982C8.36165 12.9804 7.93776 13.1351 7.49979 13.1351C7.06182 13.1351 6.63793 12.9804 6.30292 12.6982C3.09167 10.0039 1.24979 7.41887 1.24979 5.60449C1.20707 4.81369 1.47877 4.03807 2.00564 3.4468C2.53252 2.85554 3.27181 2.49659 4.06229 2.44824C4.85277 2.49659 5.59207 2.85554 6.11894 3.4468C6.64581 4.03807 6.91751 4.81369 6.87479 5.60449C6.87479 5.77025 6.94064 5.92922 7.05785 6.04643C7.17506 6.16364 7.33403 6.22949 7.49979 6.22949C7.66555 6.22949 7.82452 6.16364 7.94173 6.04643C8.05894 5.92922 8.12479 5.77025 8.12479 5.60449C8.08207 4.81369 8.35377 4.03807 8.88064 3.4468C9.40751 2.85554 10.1468 2.49659 10.9373 2.44824C11.7278 2.49659 12.4671 2.85554 12.9939 3.4468C13.5208 4.03807 13.7925 4.81369 13.7498 5.60449C13.7498 7.41887 11.9079 10.0039 8.69666 12.6957V12.6982Z" fill="#00FA9A"/>
</g>
<defs>
<clipPath id="clip0_23_420">
<rect width="15" height="15" fill="white"/>
</clipPath>
</defs>
</svg>
