<?xml version="1.0" ?><!DOCTYPE svg  PUBLIC '-//W3C//DTD SVG 20010904//EN'  'http://www.w3.org/TR/2001/REC-SVG-20010904/DTD/svg10.dtd'><svg xmlns="http://www.w3.org/2000/svg" version="1.0" width="1024.000000pt" height="1024.000000pt" viewBox="0 0 1024.000000 1024.000000" preserveAspectRatio="xMidYMid meet">

<g transform="translate(0.000000,1024.000000) scale(0.100000,-0.100000)" fill="#8FA2CA" stroke="none">
<path d="M4890 8914 c-19 -2 -84 -9 -145 -15 -569 -56 -1170 -282 -1628 -611 -407 -293 -729 -630 -1004 -1050 -346 -528 -540 -1089 -560 -1620 l-6 -156 65 -84 c247 -315 493 -546 734 -691 168 -101 409 -197 592 -237 276 -60 617 -50 881 26 287 83 540 227 762 433 160 149 289 323 435 586 41 74 44 77 38 40 -11 -70 -93 -305 -141 -403 -167 -342 -457 -625 -815 -797 -592 -284 -1304 -235 -1863 129 -310 202 -534 465 -644 755 -21 56 -40 104 -43 107 -11 10 -20 -224 -14 -313 23 -306 100 -632 191 -813 70 -139 192 -273 362 -399 306 -227 670 -360 1073 -391 358 -28 766 53 1092 216 412 207 776 576 974 989 162 339 235 661 251 1100 l6 189 18 -74 c56 -233 72 -596 36 -830 -76 -491 -286 -894 -648 -1246 -223 -215 -476 -362 -767 -444 -97 -28 -94 -16 -35 -165 49 -125 114 -251 191 -375 279 -446 627 -758 1207 -1079 127 -71 142 -73 312 -40 318 60 567 143 858 283 576 279 1067 718 1462 1311 107 160 156 247 257 455 303 626 417 1378 315 2085 -125 867 -529 1634 -1162 2203 -167 151 -264 226 -432 337 -490 323 -973 496 -1590 571 -123 14 -539 27 -615 18z m1133 -530 c211 -60 339 -109 532 -204 636 -312 1123 -805 1440 -1455 211 -435 304 -814 330 -1355 15 -311 -46 -762 -151 -1109 -203 -668 -666 -1302 -1239 -1693 -370 -253 -735 -418 -1109 -499 l-89 -20 -69 42 c-199 117 -389 384 -454 632 -38 149 -36 338 6 449 25 67 79 132 133 160 36 18 53 20 141 15 82 -4 125 -13 226 -46 166 -55 335 -96 455 -112 185 -23 418 6 517 64 88 52 150 150 171 272 10 56 8 72 -13 147 -38 139 -39 133 29 218 108 133 126 203 72 276 -15 21 -38 48 -50 58 -28 26 -27 33 12 52 72 37 121 102 111 151 -3 16 -32 63 -65 104 -75 94 -88 132 -65 193 18 46 49 78 172 177 76 61 130 132 140 186 13 69 -16 113 -200 302 -216 223 -296 322 -360 449 l-25 50 59 6 c159 18 284 96 305 191 l7 30 -26 -31 c-68 -83 -222 -104 -309 -42 -54 39 -59 68 -42 239 19 190 19 295 0 490 -36 374 -124 689 -281 1001 -98 196 -280 455 -409 586 -40 39 -70 72 -67 72 3 0 77 -20 165 -46z m-49 -685 c146 -544 -14 -1157 -408 -1560 -365 -374 -884 -589 -1366 -566 -415 21 -790 187 -1086 481 -217 216 -349 460 -414 768 -27 124 -46 376 -35 453 l9 60 7 -110 c13 -198 97 -468 201 -650 181 -314 473 -547 838 -669 191 -64 293 -80 490 -80 184 1 257 10 435 59 302 82 619 282 835 527 371 420 521 949 416 1473 -13 63 53 -94 78 -186z"/>
<path d="M1830 3808 c0 -25 189 -392 260 -506 223 -356 572 -732 920 -993 383 -286 775 -482 1160 -580 102 -25 240 -49 240 -40 -1 3 -24 17 -52 31 -139 67 -378 252 -529 407 -121 124 -189 208 -280 345 -136 205 -189 315 -269 548 l-45 135 -145 13 c-318 28 -613 135 -891 320 -121 81 -260 200 -315 269 -55 70 -54 69 -54 51z"/>
<path d="M3670 3230 c-30 -5 -81 -8 -112 -9 -42 -1 -58 -5 -58 -15 0 -26 80 -256 126 -360 60 -137 192 -364 287 -491 190 -256 471 -520 690 -649 153 -90 217 -101 557 -100 140 1 264 4 275 7 11 3 27 6 34 6 36 2 -17 24 -214 89 -425 140 -618 255 -900 537 -163 163 -222 238 -334 429 -86 146 -178 370 -227 554 -4 13 -37 14 -124 2z"/>
</g>
</svg>