<svg width="71" height="70" viewBox="0 0 71 70" fill="none" xmlns="http://www.w3.org/2000/svg">
<path d="M32.9536 0.0284782C32.7687 0.0476274 32.1362 0.114649 31.5426 0.172097C26.0056 0.708273 20.1571 2.87213 15.7003 6.02216C11.7397 8.82751 8.60629 12.0541 5.93023 16.0755C2.56326 21.1308 0.675424 26.5022 0.480802 31.5863L0.422415 33.0799L1.05494 33.8842C3.45853 36.9002 5.85239 39.1119 8.19759 40.5002C9.83242 41.4672 12.1776 42.3864 13.9584 42.7694C16.6442 43.3439 19.9625 43.2481 22.5315 42.5204C25.3244 41.7258 27.7864 40.347 29.9467 38.3747C31.5036 36.948 32.759 35.2821 34.1797 32.764C34.5787 32.0554 34.6079 32.0267 34.5495 32.381C34.4424 33.0512 33.6445 35.3012 33.1774 36.2395C31.5523 39.514 28.7303 42.2236 25.2465 43.8705C19.4857 46.5896 12.5571 46.1205 7.11743 42.6353C4.10078 40.7013 1.92101 38.1832 0.850584 35.4065C0.646231 34.8704 0.461339 34.4108 0.432146 34.3821C0.325103 34.2863 0.237523 36.5268 0.29591 37.3789C0.519726 40.3087 1.26902 43.43 2.15456 45.163C2.83573 46.4939 4.02293 47.7769 5.67722 48.9833C8.65495 51.1567 12.1971 52.4301 16.1187 52.7269C19.6025 52.995 23.5728 52.2195 26.7451 50.6588C30.7543 48.6769 34.2965 45.1439 36.2232 41.1896C37.7997 37.9438 38.5101 34.8608 38.6658 30.6575L38.7241 28.848L38.8993 29.5565C39.4442 31.7873 39.5999 35.2629 39.2496 37.5034C38.5101 42.2045 36.4665 46.063 32.9438 49.4333C30.7738 51.4918 28.3118 52.8993 25.4801 53.6844C24.5362 53.9525 24.5653 53.8376 25.1395 55.2642C25.6163 56.461 26.2488 57.6674 26.9981 58.8547C29.7131 63.1249 33.0995 66.1122 38.7436 69.1856C39.9795 69.8654 40.1254 69.8846 41.7797 69.5686C44.8742 68.9941 47.2973 68.1995 50.129 66.859C55.7342 64.1877 60.5121 59.9845 64.3559 54.3067C65.3972 52.7748 65.874 51.9418 66.8568 49.9503C69.8054 43.9566 70.9147 36.7565 69.9221 29.9873C68.7058 21.6862 64.7744 14.3425 58.6146 8.89453C56.9895 7.44877 56.0456 6.73068 54.4107 5.6679C49.6425 2.57532 44.9423 0.918914 38.9382 0.200821C37.7413 0.0667765 33.6931 -0.057693 32.9536 0.0284782ZM43.979 5.103C46.0322 5.67748 47.2778 6.14663 49.1559 7.05622C55.3449 10.0435 60.084 14.7637 63.1687 20.9872C65.222 25.1522 66.127 28.7809 66.38 33.9608C66.526 36.9385 65.9324 41.2566 64.9106 44.579C62.9352 50.9748 58.4297 57.0451 52.8537 60.7887C49.2532 63.2111 45.7014 64.7909 42.0619 65.5664L41.1958 65.7579L40.5244 65.3558C38.5879 64.2356 36.739 61.6792 36.1065 59.3047C35.7367 57.8781 35.7561 56.0685 36.1649 55.0057C36.4081 54.3642 36.9336 53.7418 37.4591 53.4738C37.8094 53.3014 37.9748 53.2823 38.8312 53.3301C39.6291 53.3684 40.0476 53.4546 41.0304 53.7706C42.6458 54.2972 44.2903 54.6897 45.4581 54.8429C47.2583 55.0631 49.5257 54.7855 50.4891 54.2301C51.3454 53.7323 51.9487 52.794 52.1531 51.6259C52.2504 51.0897 52.2309 50.9365 52.0266 50.2184C51.6568 48.8875 51.6471 48.945 52.3088 48.1311C53.3598 46.8577 53.5349 46.1875 53.0094 45.4886C52.8635 45.2875 52.6397 45.029 52.5229 44.9332C52.2504 44.6843 52.2601 44.6173 52.6397 44.4354C53.3403 44.0811 53.8171 43.4588 53.7198 42.9896C53.6906 42.8364 53.4084 42.3864 53.0873 41.9938C52.3575 41.0938 52.2309 40.73 52.4548 40.1459C52.6299 39.7055 52.9316 39.3991 54.1285 38.4512C54.8681 37.8672 55.3936 37.1874 55.4909 36.6704C55.6174 36.0097 55.3352 35.5885 53.5447 33.7789C51.4427 31.6437 50.6642 30.6958 50.0414 29.4799L49.7982 29.0011L50.3723 28.9437C51.9196 28.7714 53.1359 28.0245 53.3403 27.115L53.4084 26.8277L53.1554 27.1245C52.4937 27.9192 50.9951 28.1203 50.1485 27.5267C49.623 27.1533 49.5744 26.8756 49.7398 25.2383C49.9247 23.4192 49.9247 22.4138 49.7398 20.5468C49.3895 16.9659 48.5331 13.9499 47.0053 10.9626C46.0517 9.08603 44.2806 6.60621 43.0253 5.35194C42.6361 4.97853 42.3441 4.66257 42.3733 4.66257C42.4025 4.66257 43.1226 4.85406 43.979 5.103ZM43.5021 11.6616C44.9229 16.8702 43.3659 22.7394 39.5318 26.5979C35.98 30.1788 30.9295 32.2373 26.2391 32.0171C22.2007 31.8161 18.5515 30.2267 15.6711 27.4118C13.5594 25.3437 12.2749 23.0075 11.6424 20.0585C11.3797 18.8712 11.1948 16.4584 11.3018 15.7212L11.3894 15.1467L11.4575 16.1999C11.584 18.0957 12.4014 20.6808 13.4135 22.4234C15.1748 25.4298 18.0163 27.6607 21.5682 28.8288C23.4268 29.4416 24.4194 29.5948 26.3364 29.5948C28.1269 29.5852 28.8373 29.499 30.5695 29.0299C33.5083 28.2448 36.593 26.3298 38.6949 23.9841C42.3052 19.9627 43.7649 14.8978 42.7431 9.88072C42.6166 9.27752 43.2588 10.7807 43.5021 11.6616Z" fill="white"/>
<path d="M3.17634 48.9161C3.17634 49.1555 5.01553 52.6694 5.70644 53.7609C7.87648 57.1694 11.2726 60.7695 14.6591 63.2684C18.3861 66.0067 22.2007 67.8834 25.9472 68.8217C26.9398 69.061 28.2827 69.2908 28.2827 69.2047C28.2729 69.1759 28.0491 69.0419 27.7766 68.9078C26.424 68.2663 24.0983 66.495 22.6289 65.011C21.4514 63.8237 20.7897 63.0195 19.9042 61.7078C18.5807 59.745 18.065 58.6918 17.2865 56.4609L16.8486 55.1683L15.4376 55.0439C12.3431 54.7758 9.47238 53.7513 6.76713 51.98C5.58966 51.2044 4.23704 50.0651 3.70182 49.4044C3.16661 48.7342 3.17634 48.7438 3.17634 48.9161Z" fill="white"/>
<path d="M21.0816 54.4503C20.7897 54.4982 20.2934 54.5269 19.9917 54.5365C19.583 54.5461 19.4273 54.5844 19.4273 54.6801C19.4273 54.9291 20.2058 57.1312 20.6534 58.127C21.2373 59.4387 22.5218 61.6121 23.4463 62.8281C25.2952 65.2792 28.0296 67.8069 30.1607 69.042C31.6496 69.9037 32.2724 70.009 35.581 69.9994C36.9433 69.9899 38.15 69.9611 38.257 69.9324C38.3641 69.9037 38.5198 69.875 38.5879 69.875C38.9382 69.8558 38.4225 69.6452 36.5054 69.0228C32.3697 67.6824 30.4916 66.5813 27.7474 63.8813C26.1612 62.3206 25.5871 61.6025 24.4972 59.7738C23.6603 58.3759 22.7651 56.2312 22.2883 54.4695C22.2493 54.345 21.9282 54.3354 21.0816 54.4503Z" fill="white"/>
</svg>
