<svg width="20" height="20" viewBox="0 0 20 20" fill="none" xmlns="http://www.w3.org/2000/svg">
<path d="M16.875 17.5C16.7929 17.5002 16.7116 17.4841 16.6358 17.4526C16.56 17.4212 16.4911 17.375 16.4332 17.3168L2.6832 3.56683C2.57094 3.44867 2.50928 3.29133 2.51137 3.12835C2.51345 2.96538 2.57912 2.80966 2.69437 2.69441C2.80962 2.57916 2.96534 2.51349 3.12831 2.5114C3.29129 2.50932 3.44863 2.57098 3.5668 2.68324L17.3168 16.4332C17.4041 16.5206 17.4636 16.632 17.4877 16.7532C17.5118 16.8744 17.4994 17 17.4522 17.1142C17.4049 17.2283 17.3248 17.3259 17.2221 17.3946C17.1194 17.4633 16.9986 17.5 16.875 17.5Z" fill="black"/>
<path d="M9.83419 15.6208C8.13183 15.6208 6.4902 15.0915 4.95484 14.0475C3.55693 13.0993 2.29853 11.7412 1.31544 10.1253V10.1219C2.13358 8.89046 3.02969 7.84912 3.99226 7.00951C4.00097 7.00186 4.00808 6.9924 4.01312 6.98172C4.01817 6.97104 4.02106 6.95938 4.0216 6.94747C4.02214 6.93556 4.02032 6.92366 4.01626 6.91253C4.0122 6.9014 4.00599 6.89127 3.99801 6.88279L3.18068 6.0255C3.16616 6.01012 3.14665 6.00104 3.12605 6.00008C3.10544 5.99913 3.08525 6.00635 3.06949 6.02033C2.04701 6.92546 1.09797 8.03575 0.235102 9.33569C0.0866479 9.55952 0.0048881 9.82466 0.000212387 10.0974C-0.00446332 10.3702 0.0681561 10.6382 0.208843 10.8675C1.29246 12.6489 2.68708 14.1493 4.24132 15.2057C5.99127 16.3966 7.87457 17 9.83419 17C10.8919 16.9965 11.9422 16.8134 12.9443 16.4578C12.9575 16.4531 12.9694 16.4449 12.9787 16.434C12.9881 16.4232 12.9947 16.41 12.9979 16.3957C13.001 16.3814 13.0007 16.3665 12.9968 16.3524C12.993 16.3383 12.9858 16.3255 12.9759 16.3151L12.0905 15.385C12.0701 15.3641 12.0449 15.3491 12.0173 15.3416C11.9898 15.334 11.9608 15.3341 11.9333 15.3419C11.2476 15.5274 10.5423 15.6211 9.83419 15.6208Z" fill="black"/>
<path d="M19.7885 9.11963C18.7019 7.36357 17.2921 5.87185 15.7119 4.80542C13.9637 3.62441 12.0336 3 10.1306 3C9.08314 3.00194 8.04347 3.18807 7.05514 3.5506C7.04197 3.55538 7.03019 3.5636 7.02089 3.57446C7.0116 3.58532 7.00511 3.59848 7.00203 3.61269C6.99895 3.6269 6.99938 3.6417 7.00328 3.65568C7.00719 3.66967 7.01443 3.68239 7.02434 3.69264L7.90932 4.61745C7.92992 4.63862 7.9555 4.65373 7.98347 4.66126C8.01145 4.6688 8.04083 4.66849 8.06865 4.66037C8.74089 4.47033 9.43418 4.3738 10.1306 4.37327C11.8016 4.37327 13.4397 4.9067 14.999 5.96111C16.4244 6.9224 17.6987 8.27336 18.6851 9.86635C18.6858 9.86733 18.6862 9.86854 18.6862 9.86978C18.6862 9.87103 18.6858 9.87224 18.6851 9.87322C17.969 11.0512 17.0805 12.1044 16.0519 12.9944C16.0431 13.002 16.0359 13.0114 16.0308 13.0221C16.0256 13.0327 16.0227 13.0444 16.0221 13.0563C16.0215 13.0682 16.0233 13.0801 16.0274 13.0912C16.0315 13.1024 16.0377 13.1125 16.0457 13.121L16.863 13.9746C16.8774 13.9898 16.8968 13.9989 16.9174 13.9999C16.9379 14.0009 16.958 13.9939 16.9738 13.9802C18.072 13.0139 19.0225 11.8782 19.7926 10.6122C19.9287 10.3891 20.0007 10.1299 20 9.86529C19.9993 9.60071 19.9259 9.3419 19.7885 9.11963Z" fill="black"/>
<path d="M10 6.25C9.71911 6.24985 9.4391 6.2813 9.16524 6.34375C9.15141 6.34662 9.13861 6.35319 9.12822 6.36276C9.11782 6.37233 9.11021 6.38453 9.10621 6.39808C9.1022 6.41163 9.10194 6.42601 9.10546 6.43969C9.10897 6.45337 9.11613 6.46585 9.12618 6.47578L13.5242 10.8727C13.5342 10.8827 13.5466 10.8899 13.5603 10.8934C13.574 10.8969 13.5884 10.8966 13.6019 10.8926C13.6155 10.8886 13.6277 10.881 13.6372 10.8706C13.6468 10.8602 13.6534 10.8474 13.6563 10.8336C13.7815 10.2844 13.7814 9.71403 13.6559 9.16488C13.5305 8.61573 13.2829 8.1019 12.9316 7.66154C12.5804 7.22118 12.1344 6.86562 11.6269 6.62125C11.1194 6.37688 10.5633 6.24999 10 6.25Z" fill="black"/>
<path d="M6.47578 9.12731C6.46584 9.11726 6.45337 9.1101 6.43969 9.10658C6.426 9.10307 6.41162 9.10333 6.39808 9.10734C6.38453 9.11134 6.37232 9.11895 6.36276 9.12935C6.35319 9.13974 6.34662 9.15254 6.34375 9.16637C6.20208 9.78525 6.21987 10.43 6.39544 11.0401C6.57101 11.6502 6.89862 12.2058 7.34756 12.6547C7.79649 13.1037 8.35206 13.4313 8.96219 13.6069C9.57233 13.7824 10.217 13.8002 10.8359 13.6586C10.8498 13.6557 10.8626 13.6491 10.873 13.6395C10.8834 13.63 10.891 13.6178 10.895 13.6042C10.899 13.5907 10.8992 13.5763 10.8957 13.5626C10.8922 13.5489 10.885 13.5365 10.875 13.5265L6.47578 9.12731Z" fill="black"/>
</svg>
