<svg width="20" height="20" viewBox="0 0 20 20" fill="none" xmlns="http://www.w3.org/2000/svg">
<path d="M13.83 9.915C13.83 10.4291 13.7287 10.9382 13.532 11.4132C13.3352 11.8882 13.0469 12.3198 12.6833 12.6833C12.3198 13.0469 11.8882 13.3352 11.4132 13.532C10.9382 13.7287 10.4291 13.83 9.915 13.83C9.40088 13.83 8.89178 13.7287 8.41679 13.532C7.94181 13.3352 7.51022 13.0469 7.14668 12.6833C6.78314 12.3198 6.49476 11.8882 6.29801 11.4132C6.10126 10.9382 6 10.4291 6 9.915C6 8.87668 6.41247 7.88088 7.14668 7.14668C7.88088 6.41247 8.87668 6 9.915 6C10.9533 6 11.9491 6.41247 12.6833 7.14668C13.4175 7.88088 13.83 8.87668 13.83 9.915Z" fill="black"/>
<path fill-rule="evenodd" clip-rule="evenodd" d="M10 2.91663C7.14 2.91663 4.89583 4.19496 3.28833 5.61663C1.68333 7.03746 0.678333 8.62663 0.275 9.33496C0.158284 9.53745 0.0968475 9.76707 0.0968475 10.0008C0.0968475 10.2345 0.158284 10.4641 0.275 10.6666C0.678333 11.375 1.68333 12.965 3.28833 14.3833C4.89667 15.805 7.14 17.0833 10 17.0833C12.86 17.0833 15.1042 15.805 16.7117 14.3833C18.3167 12.9633 19.3217 11.3741 19.725 10.6658C19.8417 10.4633 19.9032 10.2337 19.9032 9.99996C19.9032 9.76624 19.8417 9.53662 19.725 9.33413C19.3217 8.62579 18.3167 7.03663 16.7117 5.61746C15.1033 4.19496 12.86 2.91663 10 2.91663ZM1.36083 9.95413C1.72833 9.30913 2.65333 7.84746 4.11667 6.55413C5.575 5.26163 7.5375 4.16663 10 4.16663C12.4625 4.16663 14.4242 5.26246 15.8833 6.55329C17.3467 7.84746 18.2717 9.30913 18.6392 9.95329C18.648 9.9673 18.6529 9.98342 18.6533 9.99996C18.6529 10.0165 18.648 10.0326 18.6392 10.0466C18.2717 10.6916 17.3467 12.1525 15.8833 13.4466C14.425 14.7375 12.4625 15.8333 10 15.8333C7.5375 15.8333 5.57583 14.7375 4.11667 13.4466C2.65333 12.1525 1.72833 10.6916 1.36083 10.0466C1.35198 10.0326 1.34709 10.0165 1.34667 9.99996C1.34724 9.98369 1.35213 9.96787 1.36083 9.95413Z" fill="black"/>
</svg>
