<svg width="16" height="16" viewBox="0 0 16 16" fill="none" xmlns="http://www.w3.org/2000/svg">
<path d="M0.660714 3.5625H1.73214V13.8025C1.73356 14.2689 1.93268 14.7158 2.28602 15.0456C2.63935 15.3753 3.11817 15.5612 3.61786 15.5625H11.6536C12.1495 15.5559 12.6229 15.3678 12.9716 15.0386C13.3203 14.7094 13.5165 14.2654 13.5179 13.8025V3.5625H14.5893C14.7314 3.5625 14.8676 3.50982 14.9681 3.41605C15.0686 3.32229 15.125 3.19511 15.125 3.0625C15.125 2.92989 15.0686 2.80271 14.9681 2.70895C14.8676 2.61518 14.7314 2.5625 14.5893 2.5625H10.8393V1.5625C10.8394 1.30156 10.7302 1.05092 10.535 0.864087C10.3398 0.677253 10.0741 0.569024 9.79464 0.5625H5.48214C5.19798 0.5625 4.92546 0.667857 4.72453 0.855393C4.5236 1.04293 4.41071 1.29728 4.41071 1.5625V2.5625H0.660714C0.518634 2.5625 0.382373 2.61518 0.281907 2.70895C0.181441 2.80271 0.125 2.92989 0.125 3.0625C0.125 3.19511 0.181441 3.32229 0.281907 3.41605C0.382373 3.50982 0.518634 3.5625 0.660714 3.5625V3.5625ZM5.48214 1.5625H9.76786V2.5625H5.48214V1.5625ZM4.41071 3.5625H12.4464V13.8025C12.4464 14.0041 12.3606 14.1974 12.2079 14.3399C12.0552 14.4824 11.8481 14.5625 11.6321 14.5625H3.59643C3.3842 14.5573 3.18255 14.4749 3.03444 14.333C2.88634 14.191 2.8035 14.0006 2.80357 13.8025V3.5625H4.41071Z" fill="#DC143C"/>
<path d="M5.84626 12.5625C5.98834 12.5625 6.1246 12.5098 6.22507 12.4161C6.32553 12.3223 6.38198 12.1951 6.38198 12.0625V6.0625C6.38198 5.92989 6.32553 5.80271 6.22507 5.70895C6.1246 5.61518 5.98834 5.5625 5.84626 5.5625C5.70418 5.5625 5.56792 5.61518 5.46745 5.70895C5.36699 5.80271 5.31055 5.92989 5.31055 6.0625V12.0625C5.31055 12.1951 5.36699 12.3223 5.46745 12.4161C5.56792 12.5098 5.70418 12.5625 5.84626 12.5625Z" fill="#DC143C"/>
<path d="M9.4029 12.5625C9.54498 12.5625 9.68124 12.5098 9.78171 12.4161C9.88218 12.3223 9.93862 12.1951 9.93862 12.0625V6.0625C9.93862 5.92989 9.88218 5.80271 9.78171 5.70895C9.68124 5.61518 9.54498 5.5625 9.4029 5.5625C9.26082 5.5625 9.12456 5.61518 9.0241 5.70895C8.92363 5.80271 8.86719 5.92989 8.86719 6.0625V12.0625C8.86719 12.1951 8.92363 12.3223 9.0241 12.4161C9.12456 12.5098 9.26082 12.5625 9.4029 12.5625Z" fill="#DC143C"/>
</svg>
