<svg width="52" height="51" viewBox="0 0 52 51" fill="none" xmlns="http://www.w3.org/2000/svg">
<path fill-rule="evenodd" clip-rule="evenodd" d="M51.9974 42.7341C44.6552 47.94 35.6843 51 25.9987 51C16.3131 51 7.34222 47.94 0 42.7341C0.0277034 40.9565 0.501773 39.3186 1.42221 37.8203C2.36904 36.2776 3.62788 35.1 5.19871 34.2875C8.55704 32.6083 11.9695 31.3484 15.4362 30.5077C18.9029 29.6693 22.4237 29.25 25.9987 29.25C29.5737 29.25 33.0945 29.6693 36.5612 30.5077C40.0279 31.3484 43.4404 32.6083 46.7987 34.2875C48.3695 35.1 49.6284 36.2776 50.5752 37.8203C51.4956 39.3186 51.9697 40.9565 51.9974 42.7341ZM16.8175 22.1812C19.3633 24.7271 22.4237 26 25.9987 26C29.5737 26 32.6341 24.7271 35.18 22.1812C37.7258 19.6354 38.9987 16.575 38.9987 13C38.9987 9.425 37.7258 6.36458 35.18 3.81875C32.6341 1.27292 29.5737 0 25.9987 0C22.4237 0 19.3633 1.27292 16.8175 3.81875C14.2716 6.36458 12.9987 9.425 12.9987 13C12.9987 16.575 14.2716 19.6354 16.8175 22.1812Z" fill="white"/>
</svg>
